<?xml version="1.0" standalone="no"?>
<svg xmlns="http://www.w3.org/2000/svg" viewBox="0 0 958 1250" preserveAspectRatio="xMidYMid meet">
<g transform="translate(0,1250) scale(0.1,-0.1)" fill="#0A1344" stroke="none">
<path d="M3045 11258 c-721 -425 -1321 -771 -1335 -772 -23 -1 -25 -4 -22 -46
1 -25 117 -1640 257 -3590 141 -1950 253 -3550 251 -3556 -2 -6 -131 -84 -285
-173 -155 -90 -281 -166 -281 -170 0 -7 3924 -2302 3937 -2303 10 -1 2352
1335 2353 1342 0 3 -470 277 -1044 610 -836 484 -1043 608 -1036 620 30 57
2830 6201 2830 6210 0 6 -5 10 -12 8 -7 -3 -382 -814 -834 -1804 -474 -1038
-827 -1798 -833 -1796 -9 2 -1351 789 -1357 796 -1 0 89 306 200 679 l201 679
1303 737 c717 406 1303 741 1303 745 0 7 -4253 2544 -4276 2551 -5 2 -599
-343 -1320 -767z m3430 -520 c1150 -684 2098 -1249 2107 -1254 14 -7 -243
-157 -1254 -729 -699 -396 -1281 -725 -1293 -732 -33 -18 -1921 1074 -1918
1110 74 777 254 2809 249 2814 -3 4 -10 2 -14 -3 -5 -5 -66 -639 -136 -1409
-70 -770 -129 -1401 -131 -1403 -4 -4 -2286 1317 -2303 1333 -17 15 2550 1528
2583 1522 11 -2 961 -564 2110 -1249z m-3557 -967 c1076 -624 1162 -675 1162
-700 0 -27 -131 -1465 -134 -1467 -57 -37 -1940 -1083 -1944 -1079 -3 3 -67
864 -143 1913 -75 1049 -139 1935 -142 1970 -5 62 -5 63 17 49 11 -7 544 -316
1184 -686z m2167 -1256 c501 -290 912 -528 914 -530 4 -4 -377 -1300 -388
-1322 -7 -13 -1608 923 -1625 950 -5 8 17 287 53 687 80 880 67 784 105 761
17 -11 441 -256 941 -546z m-290 -1420 c429 -252 785 -463 792 -469 11 -10
-509 -1801 -528 -1821 -5 -4 -1161 640 -1254 700 -21 13 -20 16 72 1016 51
552 92 1017 93 1033 0 27 1 28 23 14 12 -8 373 -221 802 -473z m-945 -560
c-50 -544 -92 -993 -93 -997 -2 -6 -1692 944 -1710 961 -4 4 419 246 940 538
837 468 948 528 951 509 2 -11 -38 -466 -88 -1011z m2458 -331 c361 -213 658
-388 660 -389 2 -2 -1844 -993 -1868 -1003 -6 -2 76 277 462 1581 46 156 65
207 75 203 7 -3 309 -180 671 -392z m-3414 -219 c466 -263 850 -485 854 -493
7 -19 -117 -1365 -127 -1375 -17 -17 -1384 -807 -1389 -803 -3 4 -231 3105
-232 3165 0 11 4 11 23 -1 12 -8 404 -230 871 -493z m4073 -232 c-8 -16 -270
-588 -582 -1273 -312 -685 -570 -1248 -574 -1252 -7 -8 -1004 565 -1009 580
-3 11 276 954 285 963 11 11 1876 1008 1886 1009 4 0 1 -12 -6 -27z m-2548
-629 c347 -196 631 -359 631 -363 -2 -28 -280 -936 -286 -934 -5 1 -192 108
-416 237 -407 236 -407 236 -544 156 -75 -44 -139 -79 -141 -76 -7 7 115 1336
123 1336 1 0 287 -160 633 -356z m340 -1330 c2 -2 -144 -502 -324 -1111 -346
-1169 -336 -1134 -319 -1140 6 -2 146 456 340 1112 181 613 332 1115 336 1115
16 0 998 -575 998 -584 0 -5 -81 -187 -181 -405 -216 -472 -196 -424 -175
-420 11 3 77 137 202 411 186 406 186 406 243 373 32 -19 489 -284 1017 -590
527 -305 960 -559 962 -563 3 -10 -2267 -1307 -2289 -1307 -20 0 -3299 1917
-3294 1925 2 3 -7 154 -21 335 -13 181 -23 330 -21 331 1 1 313 182 692 402
633 368 690 399 693 378 2 -13 -11 -173 -28 -356 -29 -308 -31 -374 -12 -356
4 4 23 176 42 383 35 375 35 375 178 458 143 82 143 82 550 -153 224 -129 409
-237 411 -238z m-2532 -855 c12 -167 21 -307 20 -312 -2 -6 -540 303 -559 321
-9 9 492 303 507 298 6 -1 19 -132 32 -307z"/>
</g>
</svg>
